<?xml version="1.0" encoding="iso-8859-1"?>
<!-- Generator: Adobe Illustrator 16.0.0, SVG Export Plug-In . SVG Version: 6.00 Build 0)  -->
<!DOCTYPE svg PUBLIC "-//W3C//DTD SVG 1.1//EN" "http://www.w3.org/Graphics/SVG/1.1/DTD/svg11.dtd">
<svg xmlns="http://www.w3.org/2000/svg" xmlns:xlink="http://www.w3.org/1999/xlink" version="1.1" id="Capa_1" x="0px" y="0px" width="512px" height="512px" viewBox="0 0 471.816 471.816" style="enable-background:new 0 0 471.816 471.816;" xml:space="preserve">
<g>
	<g>
		<path d="M434.716,123.979c0-22.231-18.021-40.251-40.25-40.251H40.25C18.02,83.729,0,101.75,0,123.979v35.247h434.716V123.979z" fill="#0275d8"/>
		<path d="M410.94,275.758l-26.498-0.008l-0.008-26.498c0-1.381-1.119-2.5-2.5-2.5h-20c-0.664,0-1.3,0.263-1.769,0.732    c-0.469,0.469-0.731,1.104-0.731,1.768l0.008,26.49l-26.49-0.008c-1.381,0-2.5,1.119-2.5,2.5v20.002    c0,0.662,0.262,1.297,0.732,1.768c0.469,0.468,1.104,0.732,1.768,0.732l26.498,0.008l0.008,26.498    c0,0.662,0.265,1.299,0.732,1.768c0.469,0.47,1.104,0.732,1.768,0.732h20c1.381,0,2.5-1.119,2.5-2.5l-0.008-26.49l26.49,0.008    c0.662,0,1.299-0.264,1.768-0.73c0.469-0.47,0.732-1.105,0.732-1.769v-20C413.44,276.875,412.321,275.758,410.94,275.758z" fill="#0275d8"/>
		<path d="M372.022,188.501c-18.219,0-35.312,4.912-50.029,13.475H0v122.11c0,22.229,18.02,40.251,40.25,40.251h267.227    c17.414,14.805,39.955,23.75,64.547,23.75c55.026,0,99.793-44.766,99.793-99.793C471.815,233.269,427.05,188.501,372.022,188.501z     M148.642,309.171c0,2.852-2.313,5.163-5.164,5.163H63.855c-2.852,0-5.166-2.312-5.166-5.163v-15.71    c0-2.854,2.314-5.165,5.166-5.165h79.623c2.852,0,5.164,2.312,5.164,5.165V309.171z M372.022,351.547    c-34.935,0-63.25-28.318-63.25-63.251s28.315-63.25,63.25-63.25c34.934,0,63.25,28.318,63.25,63.25    S406.956,351.547,372.022,351.547z" fill="#0275d8"/>
	</g>
</g>
<g>
</g>
<g>
</g>
<g>
</g>
<g>
</g>
<g>
</g>
<g>
</g>
<g>
</g>
<g>
</g>
<g>
</g>
<g>
</g>
<g>
</g>
<g>
</g>
<g>
</g>
<g>
</g>
<g>
</g>
</svg>
